<svg width="163" height="19" viewBox="0 0 163 19" fill="none" xmlns="http://www.w3.org/2000/svg">
<path d="M155.437 0V7.92L159.117 3.84H162.477L158.617 7.84L162.777 14.36H159.577L156.677 9.86L155.437 11.14V14.36H152.637V0H155.437Z" fill="black"/>
<path d="M147.288 14.9608C146.608 16.8208 145.648 18.0208 143.328 18.0208C142.788 18.0208 142.588 18.0008 142.228 17.9608V15.7008C142.528 15.7208 142.708 15.7408 143.028 15.7408C143.768 15.7408 144.168 15.5408 144.468 14.7808L144.808 13.9408L141.028 3.84082H143.928L146.308 10.7608L148.628 3.84082H151.448L147.288 14.9608Z" fill="black"/>
<path d="M140.311 12.0208V14.3608H131.551V12.3008L136.891 6.18082H131.611V3.84082H140.251V5.92082L135.091 12.0208H140.311Z" fill="black"/>
<path d="M123.762 9.10063C123.762 11.0806 124.742 12.2206 126.222 12.2206C127.382 12.2206 128.082 11.4206 128.342 10.3406L130.762 11.4206C130.282 13.1406 128.642 14.5806 126.202 14.5806C123.142 14.5806 120.982 12.3606 120.982 9.10063C120.982 5.86063 123.142 3.64062 126.202 3.64062C128.622 3.64062 130.222 5.04063 130.722 6.74063L128.342 7.86063C128.082 6.78063 127.382 5.98062 126.222 5.98062C124.742 5.98062 123.762 7.14062 123.762 9.10063Z" fill="black"/>
<path d="M120.519 3.82027V6.56027C120.199 6.52027 119.959 6.50027 119.619 6.50027C118.159 6.50027 117.039 7.40027 117.039 9.02027V14.3603H114.239V3.84027H117.039V5.32027C117.499 4.40027 118.539 3.78027 119.839 3.78027C120.119 3.78027 120.319 3.80027 120.519 3.82027Z" fill="black"/>
<path d="M106.219 14.5406C104.159 14.5406 102.639 13.3006 102.639 11.4406C102.639 9.34063 104.319 8.46062 106.439 8.08062L109.059 7.58062V7.42062C109.059 6.52062 108.599 5.96062 107.439 5.96062C106.399 5.96062 105.859 6.42063 105.619 7.36063L102.959 6.86062C103.439 5.08062 105.039 3.64062 107.539 3.64062C110.199 3.64062 111.799 4.86062 111.799 7.30062V11.6006C111.799 12.1606 112.039 12.3406 112.659 12.2606V14.3606C110.879 14.6206 109.799 14.2606 109.339 13.3806C108.659 14.1206 107.599 14.5406 106.219 14.5406ZM109.059 10.6206V9.54062L106.999 9.96062C106.079 10.1406 105.399 10.4406 105.399 11.2806C105.399 12.0006 105.939 12.4206 106.779 12.4206C107.959 12.4206 109.059 11.8006 109.059 10.6206Z" fill="black"/>
<path d="M92.2805 12.5806L94.0205 10.8006C94.7405 11.7806 96.0205 12.4006 97.2005 12.4006C98.1405 12.4006 98.9605 12.0806 98.9605 11.3206C98.9605 10.5206 98.1805 10.4206 96.5005 10.1006C94.8005 9.76063 92.9205 9.32063 92.9205 7.06063C92.9205 5.04062 94.7005 3.64062 97.2205 3.64062C99.0805 3.64062 100.741 4.40062 101.561 5.46062L99.9605 7.22062C99.2605 6.32063 98.2405 5.82063 97.1405 5.82063C96.2605 5.82063 95.6805 6.20063 95.6805 6.78063C95.6805 7.46062 96.3805 7.58062 97.6805 7.84062C99.5205 8.22062 101.701 8.64062 101.701 11.0206C101.701 13.2206 99.6605 14.5806 97.1405 14.5806C95.2405 14.5806 93.2405 13.8806 92.2805 12.5806Z" fill="black"/>
<path d="M90.9956 3.84082V14.3608H88.1956V13.2808C87.6156 13.9608 86.6956 14.5808 85.3556 14.5808C83.1756 14.5808 81.7756 13.0808 81.7756 10.8008V3.84082H84.5756V10.1808C84.5756 11.3408 85.0956 12.1008 86.2556 12.1008C87.2356 12.1008 88.1956 11.3808 88.1956 10.0208V3.84082H90.9956Z" fill="black"/>
<path d="M79.5581 0V14.36H76.7581V0H79.5581Z" fill="black"/>
<path d="M65.6985 12.5806L67.4385 10.8006C68.1585 11.7806 69.4385 12.4006 70.6185 12.4006C71.5585 12.4006 72.3785 12.0806 72.3785 11.3206C72.3785 10.5206 71.5985 10.4206 69.9185 10.1006C68.2185 9.76063 66.3385 9.32063 66.3385 7.06063C66.3385 5.04062 68.1185 3.64062 70.6385 3.64062C72.4985 3.64062 74.1585 4.40062 74.9785 5.46062L73.3785 7.22062C72.6785 6.32063 71.6585 5.82063 70.5585 5.82063C69.6785 5.82063 69.0985 6.20063 69.0985 6.78063C69.0985 7.46062 69.7985 7.58062 71.0985 7.84062C72.9385 8.22062 75.1185 8.64062 75.1185 11.0206C75.1185 13.2206 73.0785 14.5806 70.5585 14.5806C68.6585 14.5806 66.6585 13.8806 65.6985 12.5806Z" fill="black"/>
<path d="M61.1628 3.82027V6.56027C60.8428 6.52027 60.6028 6.50027 60.2628 6.50027C58.8028 6.50027 57.6828 7.40027 57.6828 9.02027V14.3603H54.8828V3.84027H57.6828V5.32027C58.1428 4.40027 59.1828 3.78027 60.4828 3.78027C60.7628 3.78027 60.9628 3.80027 61.1628 3.82027Z" fill="black"/>
<path d="M48.5259 14.5806C45.4259 14.5806 43.3059 12.3606 43.3059 9.10063C43.3059 6.00063 45.4459 3.64062 48.4259 3.64062C51.5459 3.64062 53.2259 5.96062 53.2259 8.90063V9.72062H45.9859C46.1859 11.3206 47.1659 12.2806 48.5459 12.2806C49.6259 12.2806 50.4859 11.7606 50.8059 10.7406L53.1659 11.5806C52.4059 13.5006 50.6259 14.5806 48.5259 14.5806ZM48.4059 5.88062C47.2859 5.88062 46.4259 6.54062 46.0859 7.82062H50.4459C50.4259 6.78062 49.7659 5.88062 48.4059 5.88062Z" fill="black"/>
<path d="M37.6541 14.5806C36.3341 14.5806 35.3341 14.0606 34.7141 13.2806V17.9206H31.9141V3.84062H34.7141V4.92062C35.3341 4.16062 36.3341 3.64062 37.6541 3.64062C40.5541 3.64062 42.2341 6.12062 42.2341 9.10063C42.2341 12.1006 40.5541 14.5806 37.6541 14.5806ZM34.6541 8.82063V9.40063C34.6541 11.1806 35.6541 12.1806 36.9941 12.1806C38.5741 12.1806 39.4141 10.9206 39.4141 9.10063C39.4141 7.30062 38.5741 6.04063 36.9941 6.04063C35.6541 6.04063 34.6541 7.02063 34.6541 8.82063Z" fill="black"/>
<path d="M20.8547 12.5806L22.5947 10.8006C23.3147 11.7806 24.5947 12.4006 25.7747 12.4006C26.7147 12.4006 27.5347 12.0806 27.5347 11.3206C27.5347 10.5206 26.7547 10.4206 25.0747 10.1006C23.3747 9.76063 21.4947 9.32063 21.4947 7.06063C21.4947 5.04062 23.2747 3.64062 25.7947 3.64062C27.6547 3.64062 29.3147 4.40062 30.1347 5.46062L28.5347 7.22062C27.8347 6.32063 26.8147 5.82063 25.7147 5.82063C24.8347 5.82063 24.2547 6.20063 24.2547 6.78063C24.2547 7.46062 24.9547 7.58062 26.2547 7.84062C28.0947 8.22062 30.2747 8.64062 30.2747 11.0206C30.2747 13.2206 28.2347 14.5806 25.7147 14.5806C23.8147 14.5806 21.8147 13.8806 20.8547 12.5806Z" fill="black"/>
<path d="M13.8561 14.5406C11.7961 14.5406 10.2761 13.3006 10.2761 11.4406C10.2761 9.34063 11.9561 8.46062 14.0761 8.08062L16.6961 7.58062V7.42062C16.6961 6.52062 16.2361 5.96062 15.0761 5.96062C14.0361 5.96062 13.4961 6.42063 13.2561 7.36063L10.5961 6.86062C11.0761 5.08062 12.6761 3.64062 15.1761 3.64062C17.8361 3.64062 19.4361 4.86062 19.4361 7.30062V11.6006C19.4361 12.1606 19.6761 12.3406 20.2961 12.2606V14.3606C18.5161 14.6206 17.4361 14.2606 16.9761 13.3806C16.2961 14.1206 15.2361 14.5406 13.8561 14.5406ZM16.6961 10.6206V9.54062L14.6361 9.96062C13.7161 10.1406 13.0361 10.4406 13.0361 11.2806C13.0361 12.0006 13.5761 12.4206 14.4161 12.4206C15.5961 12.4206 16.6961 11.8006 16.6961 10.6206Z" fill="black"/>
<path d="M2.8 0V7.92L6.48 3.84H9.84L5.98 7.84L10.14 14.36H6.94L4.04 9.86L2.8 11.14V14.36H0V0H2.8Z" fill="black"/>
</svg>
