<svg xmlns="http://www.w3.org/2000/svg" version="1.1" xmlns:xlink="http://www.w3.org/1999/xlink" width="1024" height="1024"><svg width="1024" height="1024" viewBox="0 0 1024 1024" fill="none" xmlns="http://www.w3.org/2000/svg">
<path d="M568.299 348.281L767.282 223.372C794.879 248.789 834.821 269.849 876.941 269.849C921.24 269.849 960.456 242.979 964.087 198.68H974.254H977.159V199.406H984.421V209.573C984.421 303.255 919.788 364.984 863.143 415.819C903.811 429.617 940.122 450.677 970.623 475.369V657.649L771.64 783.284C741.139 749.878 696.839 721.556 642.373 721.556C601.705 721.556 547.239 730.997 553.775 784.011C567.573 848.644 651.088 860.99 714.269 860.99C787.616 860.99 880.572 835.572 901.632 766.581L921.24 771.665C900.18 856.632 807.951 916.908 712.09 916.908C616.956 916.908 531.988 857.358 531.988 767.308C531.988 684.519 611.146 613.35 663.433 566.872L669.969 561.062L568.299 494.25V348.281ZM813.034 667.816V495.703L787.616 483.357L676.505 582.122C652.54 603.909 619.134 632.958 592.99 667.09C619.86 647.482 654.719 635.862 693.208 635.862C738.96 635.862 778.902 648.934 813.034 667.816ZM833.368 679.435C843.535 685.971 852.976 693.234 861.691 699.769L875.489 693.234V526.204L833.368 505.87V679.435ZM703.375 322.137C693.935 317.053 685.22 311.97 677.232 306.16L663.433 315.601V440.51L703.375 468.833V322.137ZM723.709 333.03V482.631L742.591 495.703L832.642 415.819C858.786 392.58 889.287 365.71 914.704 334.483C890.013 349.733 860.238 358.448 829.011 358.448C789.069 358.448 754.211 347.555 723.709 333.03Z" fill="black"></path>
<path d="M116.979 513.855C87.9303 513.855 71.9535 530.558 76.3108 555.25H62.5127C56.703 542.178 53.0719 526.927 53.0719 512.403C53.0719 446.317 102.455 433.972 137.313 432.519C140.944 371.517 159.826 364.255 189.601 338.111L220.828 312.693C207.03 319.229 193.958 323.587 178.707 323.587C148.932 323.587 127.146 309.062 99.5497 309.062C77.037 309.062 60.3341 321.408 56.703 339.564H40C56.703 309.789 98.0973 234.988 158.373 234.988C192.505 234.988 216.471 255.322 251.329 255.322C274.568 255.322 291.997 248.06 307.248 237.167L306.521 248.06C304.343 249.513 302.164 250.965 300.712 252.418C264.401 281.466 230.269 328.67 230.269 410.733V476.818V533.463C230.269 558.881 228.09 579.215 218.649 596.644C199.041 634.407 156.921 659.099 115.527 674.349H91.5614C113.348 664.182 128.598 642.396 133.682 616.252C136.587 602.454 137.313 588.656 137.313 574.131V513.855C130.051 513.855 123.515 513.855 116.979 513.855ZM322.498 349.004L411.823 242.251C426.347 258.953 446.681 272.025 475.004 272.025C504.778 272.025 525.839 254.596 533.101 231.357H542.542C543.994 237.167 543.994 242.977 543.994 248.786C543.994 301.074 501.874 350.457 434.335 350.457L354.452 444.139C439.419 469.556 462.658 528.38 479.361 586.477C493.159 635.134 502.6 683.79 538.184 713.565L587.567 675.075V697.588L476.456 785.46C442.324 769.484 424.168 739.709 411.823 706.303L310.152 786.187C284.735 766.579 254.234 751.328 222.28 744.066C209.208 741.161 195.41 739.709 181.612 739.709C129.325 739.709 90.8352 763.674 69.0487 797.08H47.2622C72.6797 746.245 117.705 701.945 173.624 679.433C239.71 637.312 257.865 609.716 259.317 555.976L262.948 398.387C262.948 379.505 254.96 297.443 356.63 227L368.25 243.703C312.331 282.192 284.735 323.587 283.283 398.387L280.378 508.046L415.454 349.004C395.846 346.826 376.964 339.564 360.988 328.67L332.665 359.898L322.498 349.004ZM227.364 665.635C236.078 664.908 244.793 664.182 253.508 664.182C301.438 664.182 349.368 680.885 386.405 710.66L407.466 693.957C399.477 669.992 394.394 644.574 387.131 619.883C371.881 571.227 350.821 528.38 291.997 517.487L282.556 527.654H279.651V556.702C278.199 600.275 269.484 630.05 227.364 665.635Z" fill="black"></path>
</svg><style>@media (prefers-color-scheme: light) { :root { filter: none; } }
@media (prefers-color-scheme: dark) { :root { filter: invert(100%); } }
</style></svg>