<svg width="172" height="22" viewBox="0 0 172 22" fill="none" xmlns="http://www.w3.org/2000/svg">
<path d="M3.35997 9.93593V17.2319H-2.87592e-05V4.60793H3.35997V5.90393C4.03197 5.08793 5.15997 4.36793 6.79197 4.36793C8.32797 4.36793 9.50397 5.01593 10.2 6.09593C10.968 5.30393 12.168 4.36793 14.112 4.36793C16.704 4.36793 18.384 6.16793 18.384 8.90393V17.2319H15.024V9.86393C15.024 8.44793 14.496 7.43993 13.104 7.43993C12 7.43993 10.872 8.27993 10.872 9.93593V17.2319H7.51197V9.86393C7.51197 8.44793 6.98397 7.43993 5.59197 7.43993C4.48797 7.43993 3.35997 8.27993 3.35997 9.93593ZM24.5257 17.4479C22.0537 17.4479 20.2297 15.9599 20.2297 13.7279C20.2297 11.2079 22.2457 10.1519 24.7897 9.69593L27.9337 9.09593V8.90393C27.9337 7.82393 27.3817 7.15193 25.9897 7.15193C24.7417 7.15193 24.0937 7.70393 23.8057 8.83193L20.6137 8.23193C21.1897 6.09593 23.1097 4.36793 26.1097 4.36793C29.3017 4.36793 31.2217 5.83193 31.2217 8.75993V13.9199C31.2217 14.5919 31.5097 14.8079 32.2537 14.7119V17.2319C30.1177 17.5439 28.8217 17.1119 28.2697 16.0559C27.4537 16.9439 26.1817 17.4479 24.5257 17.4479ZM27.9337 12.7439V11.4479L25.4617 11.9519C24.3577 12.1679 23.5417 12.5279 23.5417 13.5359C23.5417 14.3999 24.1897 14.9039 25.1977 14.9039C26.6137 14.9039 27.9337 14.1599 27.9337 12.7439ZM38.8764 17.4959C35.3964 17.4959 33.3804 14.5199 33.3804 10.9199C33.3804 7.34393 35.3964 4.36793 38.8764 4.36793C40.4604 4.36793 41.6604 4.99193 42.4044 5.90393V-6.77109e-05H45.7644V17.2319H42.4044V15.9359C41.6604 16.8719 40.4604 17.4959 38.8764 17.4959ZM42.4764 10.5839C42.4764 8.42393 41.2764 7.24793 39.6684 7.24793C37.7724 7.24793 36.7644 8.75993 36.7644 10.9199C36.7644 13.1039 37.7724 14.6159 39.6684 14.6159C41.2764 14.6159 42.4764 13.4159 42.4764 11.2799V10.5839ZM54.059 17.4959C50.339 17.4959 47.795 14.8319 47.795 10.9199C47.795 7.19993 50.363 4.36793 53.939 4.36793C57.683 4.36793 59.699 7.15193 59.699 10.6799V11.6639H51.011C51.251 13.5839 52.427 14.7359 54.083 14.7359C55.379 14.7359 56.411 14.1119 56.795 12.8879L59.627 13.8959C58.715 16.1999 56.579 17.4959 54.059 17.4959ZM53.915 7.05593C52.571 7.05593 51.539 7.84793 51.131 9.38393H56.363C56.339 8.13593 55.547 7.05593 53.915 7.05593ZM73.427 17.4959C71.843 17.4959 70.643 16.8719 69.899 15.9359V17.2319H66.539V-6.77109e-05H69.899V5.90393C70.643 4.99193 71.843 4.36793 73.427 4.36793C76.907 4.36793 78.923 7.34393 78.923 10.9199C78.923 14.5199 76.907 17.4959 73.427 17.4959ZM69.827 10.5839V11.2799C69.827 13.4159 71.027 14.6159 72.635 14.6159C74.531 14.6159 75.539 13.1039 75.539 10.9199C75.539 8.75993 74.531 7.24793 72.635 7.24793C71.027 7.24793 69.827 8.42393 69.827 10.5839ZM86.769 17.9519C85.953 20.1839 84.801 21.6239 82.017 21.6239C81.369 21.6239 81.129 21.5999 80.697 21.5519V18.8399C81.057 18.8639 81.273 18.8879 81.657 18.8879C82.545 18.8879 83.025 18.6479 83.385 17.7359L83.793 16.7279L79.257 4.60793H82.737L85.593 12.9119L88.377 4.60793H91.761L86.769 17.9519ZM101.399 -6.77109e-05V9.50393L105.815 4.60793H109.847L105.215 9.40793L110.207 17.2319H106.367L102.887 11.8319L101.399 13.3679V17.2319H98.039V-6.77109e-05H101.399ZM114.666 17.4479C112.194 17.4479 110.37 15.9599 110.37 13.7279C110.37 11.2079 112.386 10.1519 114.93 9.69593L118.074 9.09593V8.90393C118.074 7.82393 117.522 7.15193 116.13 7.15193C114.882 7.15193 114.234 7.70393 113.946 8.83193L110.754 8.23193C111.33 6.09593 113.25 4.36793 116.25 4.36793C119.442 4.36793 121.362 5.83193 121.362 8.75993V13.9199C121.362 14.5919 121.65 14.8079 122.394 14.7119V17.2319C120.258 17.5439 118.962 17.1119 118.41 16.0559C117.594 16.9439 116.322 17.4479 114.666 17.4479ZM118.074 12.7439V11.4479L115.602 11.9519C114.498 12.1679 113.682 12.5279 113.682 13.5359C113.682 14.3999 114.33 14.9039 115.338 14.9039C116.754 14.9039 118.074 14.1599 118.074 12.7439ZM123.064 15.0959L125.152 12.9599C126.016 14.1359 127.552 14.8799 128.968 14.8799C130.096 14.8799 131.08 14.4959 131.08 13.5839C131.08 12.6239 130.144 12.5039 128.128 12.1199C126.088 11.7119 123.832 11.1839 123.832 8.47193C123.832 6.04793 125.968 4.36793 128.992 4.36793C131.224 4.36793 133.216 5.27993 134.2 6.55193L132.28 8.66393C131.44 7.58393 130.216 6.98393 128.896 6.98393C127.84 6.98393 127.144 7.43993 127.144 8.13593C127.144 8.95193 127.984 9.09593 129.544 9.40793C131.752 9.86393 134.368 10.3679 134.368 13.2239C134.368 15.8639 131.92 17.4959 128.896 17.4959C126.616 17.4959 124.216 16.6559 123.064 15.0959ZM143.224 17.4959C141.64 17.4959 140.44 16.8719 139.696 15.9359V21.5039H136.336V4.60793H139.696V5.90393C140.44 4.99193 141.64 4.36793 143.224 4.36793C146.704 4.36793 148.72 7.34393 148.72 10.9199C148.72 14.5199 146.704 17.4959 143.224 17.4959ZM139.624 10.5839V11.2799C139.624 13.4159 140.824 14.6159 142.432 14.6159C144.328 14.6159 145.336 13.1039 145.336 10.9199C145.336 8.75993 144.328 7.24793 142.432 7.24793C140.824 7.24793 139.624 8.42393 139.624 10.5839ZM156.27 17.4959C152.55 17.4959 150.006 14.8319 150.006 10.9199C150.006 7.19993 152.574 4.36793 156.15 4.36793C159.894 4.36793 161.91 7.15193 161.91 10.6799V11.6639H153.222C153.462 13.5839 154.638 14.7359 156.294 14.7359C157.59 14.7359 158.622 14.1119 159.006 12.8879L161.838 13.8959C160.926 16.1999 158.79 17.4959 156.27 17.4959ZM156.126 7.05593C154.782 7.05593 153.75 7.84793 153.342 9.38393H158.574C158.55 8.13593 157.758 7.05593 156.126 7.05593ZM171.434 4.58393V7.87193C171.05 7.82393 170.762 7.79993 170.354 7.79993C168.602 7.79993 167.258 8.87993 167.258 10.8239V17.2319H163.898V4.60793H167.258V6.38393C167.81 5.27993 169.058 4.53593 170.618 4.53593C170.954 4.53593 171.194 4.55993 171.434 4.58393Z" fill="currentColor"/>
</svg>